<svg xmlns="http://www.w3.org/2000/svg" xmlns:xlink="http://www.w3.org/1999/xlink" viewBox="0,0,256,256" width="53px" height="53px" fill-rule="nonzero"><g fill="#16035d" fill-rule="nonzero" stroke="none" stroke-width="1" stroke-linecap="butt" stroke-linejoin="miter" stroke-miterlimit="10" stroke-dasharray="" stroke-dashoffset="0" font-family="none" font-weight="none" font-size="none" text-anchor="none" style="mix-blend-mode: normal"><g transform="translate(-13.04151,18.83774) scale(4.83019,4.83019)"><path d="M16.85938,3.68945c2.90002,0.65002 4.87109,1.87109 5.20117,3.37109c0.02991,0.14001 0.04883,0.28955 0.04883,0.43945v10.57031c0.76074,-0.17786 1.45898,-0.29736 2.06055,-0.37305c0.81152,-0.10254 1.70215,-0.12793 2.81055,-0.09375c2.11914,0.07227 9.43555,-0.21582 13.85938,-6.9707c2.25549,-3.44385 5.01843,-5.48035 7.51172,-6.69922c-0.37219,-0.15723 -0.78088,-0.24414 -1.21094,-0.24414zM11.92969,4.18945c-4.90991,0 -8.4801,1.44116 -9.08008,2.87109c-0.06995,0.1499 -0.09961,0.29956 -0.09961,0.43945v0.06055c0.01001,0.15991 0.0603,0.32996 0.16016,0.5c0.76001,1.39001 4.24951,2.75 9.01953,2.75c4.77002,0 8.25952,-1.35999 9.01953,-2.75c0.1001,-0.17004 0.15015,-0.34009 0.16016,-0.5v-0.06055c0,-0.13989 -0.02954,-0.28955 -0.09961,-0.43945c-0.6001,-1.42993 -4.17004,-2.87109 -9.08008,-2.87109zM49.3418,4.60156c-2.50488,1.12097 -5.38318,3.09326 -7.66602,6.57813c-4.70898,7.19141 -12.47266,7.5 -14.72852,7.42383c-1.05078,-0.03809 -1.89551,-0.00879 -2.65234,0.08594c-0.63159,0.07935 -1.37256,0.20776 -2.18555,0.4082v9.23828c2.0083,-0.80786 3.84521,-1.17676 5.20508,-1.33594c0.81348,-0.09668 1.70801,-0.11914 2.81055,-0.07227c2.12891,0.09863 9.43652,-0.13672 13.91602,-6.85352c1.87744,-2.81445 4.08984,-4.66846 6.20898,-5.91016v-7.36328c0,-0.85913 -0.34668,-1.63684 -0.9082,-2.19922zM11.93555,5.48242c2.2175,0 4.43359,0.67261 4.43359,2.01758c0,1.34009 -2.22937,2.05078 -4.43945,2.05078c-2.19995,0 -4.42969,-0.71069 -4.42969,-2.05078c0,-1.34497 2.21805,-2.01758 4.43555,-2.01758zM11.92969,6.44922c-2.12988,0 -3.42969,0.68091 -3.42969,1.05078c0,0.37012 1.2998,1.05078 3.42969,1.05078c2.13013,0 3.43945,-0.68066 3.43945,-1.05078c0,-0.36987 -1.30933,-1.05078 -3.43945,-1.05078zM2.75,9.41992v36.69922c0,1.11987 3.48975,2.69141 9.17969,2.69141c5.69006,0 9.17969,-1.57153 9.17969,-2.69141v-36.68945c-1.60999,1.44006 -5.02954,2.38086 -9.17969,2.38086c-4.1499,0 -7.57971,-0.95056 -9.17969,-2.39063zM50.25,15.35352c-1.85791,1.16968 -3.76025,2.85181 -5.37695,5.27539c-4.76758,7.14941 -12.51465,7.3877 -14.79102,7.29883c-1.0459,-0.04492 -1.88965,-0.02344 -2.65039,0.06641c-1.37646,0.16077 -3.26721,0.5459 -5.32227,1.42383v9.7168c1.81226,-0.67432 3.46045,-0.99634 4.70703,-1.14258c0.81836,-0.09375 1.71094,-0.11523 2.81055,-0.07031c2.13867,0.10449 9.43555,-0.1377 13.91602,-6.85352c2.02417,-3.0354 4.44092,-4.96606 6.70703,-6.20117zM50.25,26.05664c-2.01318,1.17602 -4.11328,2.92456 -5.875,5.56641c-4.76855,7.15039 -12.52051,7.38184 -14.79102,7.29883c-1.0459,-0.04687 -1.88867,-0.02441 -2.65234,0.06445c-1.26428,0.14807 -2.96191,0.48657 -4.82227,1.2207v5.91211c0,1.52991 -2.12915,2.61133 -4.94922,3.19141h29.98047c1.71997,0 3.10938,-1.39136 3.10938,-3.11133z"></path></g></g></svg>