<svg xmlns="http://www.w3.org/2000/svg" xmlns:xlink="http://www.w3.org/1999/xlink" viewBox="0,0,256,256" width="50px" height="50px" fill-rule="nonzero"><g fill="#ffffff" fill-rule="nonzero" stroke="none" stroke-width="1" stroke-linecap="butt" stroke-linejoin="miter" stroke-miterlimit="10" stroke-dasharray="" stroke-dashoffset="0" font-family="none" font-weight="none" font-size="none" text-anchor="none" style="mix-blend-mode: normal"><g transform="scale(5.12,5.12)"><path d="M13.59961,4c-4.73754,0 -8.59961,3.86206 -8.59961,8.59961v18v0.80078v7c0,4.73754 3.86206,8.59961 8.59961,8.59961h22.80078c4.73754,0 8.59961,-3.86207 8.59961,-8.59961v-7v-0.80078v-18c0,-4.73754 -3.86207,-8.59961 -8.59961,-8.59961zM13.59961,6h22.80078c3.65646,0 6.59961,2.94315 6.59961,6.59961v18v0.80078c0,3.65646 -2.94315,6.59961 -6.59961,6.59961h-22.80078c-3.65645,0 -6.59961,-2.94315 -6.59961,-6.59961v-0.80078v-18c0,-3.65645 2.94315,-6.59961 6.59961,-6.59961zM25.19141,13.70508c-4.339,0 -7.18359,3.28687 -7.18359,8.29688c0,5.076 2.80059,8.30469 7.18359,8.30469c4.055,0 6.73633,-2.59195 6.73633,-6.50195v-1.93555h-6.42578v1.73633h4.45898v0.38477c0,2.681 -1.92381,4.49414 -4.75781,4.49414c-3.186,0 -5.16406,-2.48342 -5.16406,-6.48242c0,-3.945 2.01034,-6.4707 5.15234,-6.4707c2.352,0 3.94495,1.13144 4.62695,3.27344h2.00977c-0.573,-3.142 -3.12072,-5.09961 -6.63672,-5.09961zM7,36.90234c1.57946,1.89041 3.95257,3.09766 6.59961,3.09766h22.80078c2.64704,0 5.02015,-1.20724 6.59961,-3.09766v1.49805c0,3.65646 -2.94315,6.59961 -6.59961,6.59961h-22.80078c-3.65645,0 -6.59961,-2.94315 -6.59961,-6.59961z"></path></g></g></svg>